<svg width="122" height="20" viewBox="0 0 122 20" fill="none" xmlns="http://www.w3.org/2000/svg">
<path d="M2.25352 1.77686V18.0394H0V1.77686H2.25352Z" fill="white"/>
<path d="M18.2977 1.77686V18.0394H14.6038L8.44725 3.96068V18.0394H6.19373V1.77686H9.88764L16.0442 15.8091V1.77686H18.2977Z" fill="white"/>
<path d="M33.8494 3.91421H28.599V18.0394H26.3454V3.91421H21.095V1.77686H33.8494V3.91421Z" fill="white"/>
<path d="M46.6768 15.902V18.0394H36.6406V1.77686H46.6071V3.91421H38.8941V8.53741H45.5617V10.6748H38.8941V15.902H46.6768Z" fill="white"/>
<path d="M59.0685 18.0394L55.2119 11.8828C55.0571 11.8983 54.8092 11.9061 54.4685 11.9061H52.0756V18.0394H49.8221V1.77686H54.4685C56.6988 1.77686 58.325 2.1718 59.3473 2.9617C60.3695 3.7361 60.8806 5.02936 60.8806 6.84146C60.8806 8.12698 60.625 9.14919 60.1139 9.90811C59.6028 10.667 58.7819 11.2091 57.6513 11.5344L61.7634 18.0394H59.0685ZM54.4685 9.74548C55.5991 9.74548 56.451 9.6603 57.024 9.48993C57.6126 9.31956 58.023 9.03303 58.2553 8.63034C58.4877 8.21216 58.6038 7.60813 58.6038 6.81823C58.6038 6.05932 58.4877 5.47851 58.2553 5.07582C58.0385 4.65764 57.6358 4.36337 57.0473 4.193C56.4587 4.02263 55.5991 3.93745 54.4685 3.93745H52.0756V9.74548H54.4685Z" fill="white"/>
<path d="M68.4343 1.77686C70.804 1.77686 72.5309 2.19503 73.6151 3.03139C74.6992 3.86775 75.2413 5.24619 75.2413 7.16671C75.2413 9.02529 74.7147 10.3882 73.6615 11.2556C72.6083 12.1074 70.8659 12.5333 68.4343 12.5333H66.4596V18.0394H64.206V1.77686H68.4343ZM68.4343 10.3728C69.6733 10.3728 70.6104 10.2721 71.2454 10.0707C71.8959 9.8539 72.345 9.52091 72.5929 9.07175C72.8407 8.60711 72.9646 7.96435 72.9646 7.14348C72.9646 6.30713 72.8329 5.66437 72.5696 5.21521C72.3218 4.75057 71.8727 4.42532 71.2222 4.23946C70.5871 4.03812 69.6579 3.93745 68.4343 3.93745H66.4596V10.3728H68.4343Z" fill="white"/>
<path d="M106.498 18.3011L102.642 12.1446C102.487 12.16 102.239 12.1678 101.898 12.1678H99.5055V18.3011H97.252V2.03857H101.898C104.129 2.03857 105.755 2.43352 106.777 3.22341C107.799 3.99782 108.31 5.29107 108.31 7.10318C108.31 8.3887 108.055 9.41091 107.544 10.1698C107.033 10.9287 106.212 11.4708 105.081 11.7961L109.193 18.3011H106.498ZM101.898 10.0072C103.029 10.0072 103.881 9.92202 104.454 9.75165C105.042 9.58128 105.453 9.29475 105.685 8.89206C105.918 8.47388 106.034 7.86984 106.034 7.07995C106.034 6.32103 105.918 5.74023 105.685 5.33754C105.468 4.91936 105.066 4.62509 104.477 4.45472C103.889 4.28435 103.029 4.19916 101.898 4.19916H99.5055V10.0072H101.898Z" fill="white"/>
<path d="M121.958 4.17593H116.708V18.3011H114.454V4.17593H109.204V2.03857H121.958V4.17593Z" fill="white"/>
<path d="M91.7828 17.1645C90.4546 18.2379 89.1669 18.8724 87.9197 19.0679C86.6858 19.2527 85.4336 18.9802 84.1632 18.2504C82.8927 17.5206 81.5544 16.2857 80.1483 14.5458C78.7851 12.859 77.8667 11.3287 77.3932 9.95482C76.9196 8.58098 76.8919 7.29695 77.3101 6.10272C77.7415 4.89775 78.6479 3.73711 80.0292 2.62078C81.3441 1.55813 82.6185 0.934399 83.8524 0.749595C85.0864 0.564792 86.3385 0.837293 87.609 1.5671C88.8795 2.2969 90.2177 3.53177 91.6239 5.27171C93.6526 7.78199 94.6943 9.98113 94.749 11.8691C94.8037 13.7571 93.815 15.5222 91.7828 17.1645ZM90.2854 15.3117C91.2285 14.5496 91.8314 13.7878 92.0944 13.0264C92.3706 12.2543 92.3169 11.3864 91.9334 10.4229C91.5525 9.43528 90.7985 8.24419 89.6714 6.84959C88.5444 5.45498 87.5434 4.47448 86.6685 3.90807C85.7961 3.31764 84.9535 3.07645 84.1405 3.1845C83.3409 3.2818 82.4696 3.71151 81.5266 4.47361C80.557 5.25719 79.9341 6.03505 79.6579 6.80718C79.3709 7.56604 79.4246 8.43389 79.8188 9.41073C80.2023 10.3743 80.9629 11.56 82.1007 12.9679C83.2278 14.3625 84.2275 15.355 85.0999 15.9454C85.9748 16.5119 86.8187 16.741 87.6316 16.633C88.4445 16.525 89.3291 16.0845 90.2854 15.3117Z" fill="url(#paint0_linear_8447_6916)"/>
<defs>
<linearGradient id="paint0_linear_8447_6916" x1="81.855" y1="-2.0491" x2="82.7292" y2="24.0937" gradientUnits="userSpaceOnUse">
<stop offset="0.192708" stop-color="#EF2EC5"/>
<stop offset="1" stop-color="#322EEF"/>
</linearGradient>
</defs>
</svg>
