<svg width="3051" height="1192" fill="none" xmlns="http://www.w3.org/2000/svg"><path fill-rule="evenodd" clip-rule="evenodd" d="M201.794 0c-45.488 0-82.362 36.875-82.362 82.362 0 45.487 36.874 82.361 82.362 82.361H471.23a83.248 83.248 0 0 0-.726 10.982v89.393C247.139 301.291 69.674 482.343 43.762 713.771L.519 1099.97c-5.062 45.21 27.48 85.96 72.685 91.02 45.205 5.06 85.954-27.48 91.015-72.69l43.243-386.2c16.544-147.749 124.133-265.235 263.042-299.044v676.084c0 45.49 36.875 82.36 82.362 82.36 45.487 0 82.362-36.87 82.362-82.36V432.806c144.725 34.311 256.579 157.118 272.047 310.972l37.56 373.602c4.55 45.26 44.928 78.26 90.185 73.71 45.26-4.55 78.26-44.93 73.71-90.19l-37.56-373.6c-23.96-238.327-206.068-425.714-435.942-462.316v-89.279c0-3.723-.247-7.389-.726-10.982h266.817c45.487 0 82.362-36.874 82.362-82.361S946.806 0 901.319 0H201.794ZM1494.06 382.521c-37.77 70.626-56.66 153.16-56.66 247.601 0 95.263 18.89 178.207 56.66 248.833 37.78 70.626 89.11 124.825 153.98 162.605 65.7 36.95 138.79 55.43 219.27 55.43 80.48 0 153.16-18.48 218.04-55.43 65.7-37.78 117.44-91.979 155.21-162.605 38.6-70.626 57.9-153.57 57.9-248.833 0-94.441-19.3-176.975-57.9-247.601-37.77-70.625-89.51-124.416-155.21-161.371-64.88-37.777-137.56-56.665-218.04-56.665-80.48 0-153.57 18.888-219.27 56.665-64.87 36.955-116.2 90.746-153.98 161.371Zm161.38 406.509c-19.71-45.988-29.57-98.958-29.57-158.908 0-59.95 9.86-112.508 29.57-157.676 20.53-45.989 48.86-81.302 84.99-105.939 36.96-25.458 79.25-38.187 126.88-38.187 47.63 0 89.52 12.729 125.65 38.187 36.96 24.637 65.29 59.95 85 105.939 20.53 45.168 30.79 97.726 30.79 157.676 0 59.95-10.26 112.92-30.79 158.908-19.71 45.989-48.04 81.713-85 107.171-36.13 24.637-78.02 36.955-125.65 36.955-47.63 0-89.92-12.318-126.88-36.955-36.13-25.458-64.46-61.182-84.99-107.171ZM3051 180.499h-726.79v158.908h273.47v742.803h179.85V339.407H3051V180.499Z" fill="url(#a)"/><defs><linearGradient id="a" x1="3145.65" y1="595.754" x2="-450.969" y2="595.754" gradientUnits="userSpaceOnUse"><stop stop-color="#03CDC1"/><stop offset="1" stop-color="#8AB9FF"/></linearGradient></defs></svg>