<svg width="144" height="30" viewBox="0 0 144 30" fill="none" xmlns="http://www.w3.org/2000/svg">
<path d="M31.187 0H34.8529V7.54733H21.9204V13.0898C21.9204 22.4295 14.4274 30 5.18461 30H0V22.4548H14.4498V16.9124C14.4513 7.57128 21.9442 0 31.187 0Z" fill="#181E1B"/>
<path d="M71.3177 21.2412C71.3177 25.7921 67.5266 29.9438 60.1442 29.9438C52.3627 29.9438 48.9707 24.9141 48.9707 19.7242H52.9611C53.0396 22.5185 54.5176 26.4307 60.1442 26.4307C65.6511 26.4307 67.1676 23.5964 67.1676 21.4807C67.1676 19.0058 65.611 17.6485 60.1049 16.9699C53.5606 16.1715 49.9292 13.896 49.9292 9.10532C49.9292 4.71421 53.6803 1.20117 60.185 1.20117C67.0883 1.20117 70.1213 5.59227 70.241 10.1431H66.3703C66.3703 7.6683 64.6941 4.71422 60.1049 4.71422C55.3965 4.71422 54.0393 7.03009 54.0393 8.8659C54.0393 10.5824 54.7978 12.2989 60.504 13.0576C66.6885 13.8944 71.3177 15.3315 71.3177 21.2412Z" fill="#181E1B"/>
<path d="M79.6174 17.5284C83.2888 17.2489 86.9998 17.6877 86.9598 15.5721C86.9205 13.8956 85.9624 12.2188 81.7723 12.2188C78.1809 12.2188 76.9438 13.5761 76.6644 15.5721H72.9134C73.6318 10.9011 77.2232 8.86548 81.932 8.86548C86.5227 8.86548 90.7909 10.4622 90.7909 17.9672V29.625H86.9598V27.6679C86.9598 26.9096 87.0383 26.3106 87.3988 25.2736C87.4773 24.9144 87.6382 24.5949 87.3596 24.4752C87.0406 24.3555 86.9606 24.6746 86.8809 24.8744C85.7234 27.9081 83.0102 29.9442 79.2988 29.9442C75.4281 29.9442 72.2754 27.3892 72.2754 23.9162C72.275 19.2449 75.7067 17.8075 79.6174 17.5284ZM79.8567 20.6022C77.3829 20.9613 76.1057 21.8398 76.1057 23.7156C76.1057 25.3525 77.4625 26.8695 80.7749 26.4303C83.8875 26.0311 86.9205 23.7557 86.9602 18.6062C85.7219 20.1229 82.9694 20.163 79.8567 20.6022Z" fill="#181E1B"/>
<path d="M98.7717 12.5372V23.2357C98.7717 25.5516 99.2504 26.2695 101.485 26.2695H104.516V29.6232H101.164C96.9346 29.6232 94.9394 28.0661 94.9394 23.6349V12.5372H91.1083V9.1839H94.9426V3.43506H98.7733V9.1839H104.516V12.5372H98.7717Z" fill="#181E1B"/>
<path d="M124.629 19.4046C124.629 25.1927 120.918 29.9434 114.733 29.9434C108.547 29.9434 104.836 25.1939 104.836 19.4046C104.836 13.6154 108.547 8.86548 114.733 8.86548C120.918 8.86548 124.629 13.6161 124.629 19.4046ZM120.798 19.4046C120.798 15.532 118.562 12.3785 114.733 12.3785C110.904 12.3785 108.667 15.532 108.667 19.4046C108.667 23.2772 110.902 26.4307 114.733 26.4307C118.564 26.4307 120.799 23.2768 120.799 19.4046H120.798Z" fill="#181E1B"/>
<path d="M130.138 13.5757C131.415 10.3021 132.571 8.86548 137.72 8.86548V12.7777C131.774 12.3785 130.058 14.4942 130.058 19.8431V29.6239H126.228V9.18459H130.058V10.5419C130.058 11.38 129.98 12.019 129.619 13.2166C129.541 13.5357 129.42 13.8552 129.739 13.9349C129.938 13.9749 130.057 13.7751 130.138 13.5757Z" fill="#181E1B"/>
<path d="M139.155 0.881104H143.305V5.3523H139.155V0.881104ZM139.315 9.18484H143.146V29.6241H139.315V9.18484Z" fill="#181E1B"/>
</svg>
