<svg width="177" height="60" viewBox="0 0 177 60" fill="none" xmlns="http://www.w3.org/2000/svg">
<path d="M50.8755 60H30.2407C29.6745 60 29.1428 59.6976 28.8554 59.2127C28.568 58.7278 28.5623 58.1202 28.8382 57.6296L32.3645 51.3711H22.6621C22.1822 51.3711 21.7367 51.1144 21.501 50.7008C21.4982 50.6922 21.4924 50.6865 21.4895 50.678C21.4062 50.5952 21.3343 50.5011 21.274 50.3984L17.4804 44.0744L13.8075 50.367C13.5345 50.8377 13.0258 51.1287 12.4798 51.1287C12.4769 51.1287 12.474 51.1287 12.4711 51.1287C11.9222 51.1258 11.4107 50.8263 11.1434 50.3528L0.196577 31.0697C-0.070699 30.599 -0.0649547 30.0143 0.210943 29.5493L11.1578 11.0307C11.4308 10.5686 11.9337 10.2805 12.474 10.2776C12.4769 10.2776 12.4798 10.2776 12.4826 10.2776C13.0172 10.2776 13.5201 10.5601 13.7989 11.0136L17.3281 16.8213L21.2769 10.2349C21.32 10.1635 21.3688 10.0951 21.4234 10.0295L21.8574 9.26786L22.6247 9.2593H32.5858L28.2375 1.28935L28.9905 0.0114125L29.7435 0H51.7865L52.1774 0.656086L63.061 19.4827C63.3254 19.942 63.3254 20.5097 63.0581 20.9689C62.7908 21.4282 62.2936 21.7106 61.762 21.7106H54.0368L58.5805 29.2869C58.7644 29.5921 58.8305 29.943 58.7817 30.2853C58.8449 30.6361 58.7846 31.0012 58.6006 31.3179L54.1662 38.917H61.5723C62.1471 38.917 62.6816 39.2251 62.9661 39.7214C63.2507 40.2178 63.2449 40.831 62.9518 41.3217L52.255 59.2184C51.9676 59.7005 51.4388 60 50.8755 60ZM31.9162 57.4327H50.318L59.8508 41.4843H52.6688L47.2946 50.6894C47.0474 51.1087 46.5876 51.3711 46.0962 51.3711H35.3304L31.9162 57.4327ZM23.7485 50.6751L23.7427 50.6837C23.7456 50.6808 23.7456 50.6779 23.7485 50.6751ZM36.7789 48.801H45.4064L49.6771 41.4814H40.9001L36.7789 48.801ZM24.8693 48.801H33.813L38.9257 39.73C39.2102 39.2279 39.7448 38.9141 40.3253 38.9141H51.1744L55.4451 31.5946H35.1838L24.8693 48.801ZM18.9691 41.5271L22.596 47.5773L32.9479 30.3138L22.596 13.0503L18.8426 19.3116L25.0532 29.5293C25.3435 30.0057 25.3492 30.599 25.0676 31.0811L18.9691 41.5271ZM2.74288 30.328L12.4913 47.5002L15.9658 41.547L9.6978 31.0954C9.4104 30.6133 9.4104 30.0171 9.6978 29.535L15.8221 19.3202L12.4941 13.8376L2.74288 30.328ZM12.2441 30.3138L17.4545 38.9997L22.5184 30.3252L17.3425 21.8104L12.2441 30.3138ZM35.1867 29.0301H55.4163L51.0278 21.7106H39.3941L39.0062 21.0345L33.9854 11.8237H24.8693L35.1867 29.0301ZM52.4993 19.1433H59.8853L50.3036 2.56727H31.8788L35.5258 9.2593H45.6306C46.2111 9.2593 46.7543 9.56737 47.0503 10.0609L52.4993 19.1433ZM40.9145 19.1433H49.4903L45.1018 11.8237H36.9283L40.9145 19.1433ZM23.7226 9.90968L23.7255 9.91252C23.7226 9.91252 23.7226 9.91253 23.7226 9.90968Z" fill="white"/>
<path d="M79.1578 45.2438C77.8703 43.8603 77.2266 41.875 77.2266 39.2877V14.9158H82.2847V39.6529C82.2847 40.7482 82.506 41.5412 82.9514 42.0262C83.394 42.5139 84.032 42.7564 84.8597 42.7564C85.6874 42.7564 86.3226 42.5139 86.768 42.0262C87.2135 41.5384 87.4348 40.7482 87.4348 39.6529V14.9158H92.309V39.2877C92.309 41.875 91.6652 43.8603 90.3777 45.2438C89.0902 46.6273 87.2192 47.3204 84.7678 47.3204C82.3134 47.3204 80.4454 46.6273 79.1578 45.2438Z" fill="white"/>
<path d="M95.8955 14.9158H102.241L107.161 34.0391H107.253V14.9158H111.76V46.864H106.564L100.494 23.5418H100.402V46.864H95.8955V14.9158Z" fill="white"/>
<path d="M115.527 14.9158H120.585V46.864H115.527V14.9158Z" fill="white"/>
<path d="M124.356 14.9158H132.082C134.593 14.9158 136.479 15.5861 137.737 16.924C138.993 18.2618 139.623 20.2272 139.623 22.8116V38.9683C139.623 41.5555 138.993 43.518 137.737 44.8559C136.479 46.1966 134.593 46.864 132.082 46.864H124.356V14.9158ZM131.99 42.3C132.817 42.3 133.452 42.0575 133.898 41.5698C134.34 41.082 134.565 40.2918 134.565 39.1965V22.5834C134.565 21.488 134.34 20.6978 133.898 20.2101C133.452 19.7223 132.817 19.4798 131.99 19.4798H129.415V42.3H131.99Z" fill="white"/>
<path d="M143.025 14.9158H156.82V19.4798H148.084V27.9233H155.027V32.4873H148.084V42.3H156.82V46.864H143.025V14.9158Z" fill="white"/>
<path d="M164.27 30.5248L158.706 14.9158H164.04L167.442 25.2305H167.534L171.029 14.9158H175.811L170.247 30.5248L176.087 46.864H170.753L167.074 35.7278H166.983L163.212 46.864H158.43L164.27 30.5248Z" fill="white"/>
</svg>
